<svg id="SvgjsSvg1018" xmlns="http://www.w3.org/2000/svg" version="1.1" xmlns:xlink="http://www.w3.org/1999/xlink" xmlns:svgjs="http://svgjs.com/svgjs" width="42" height="45" viewBox="0 0 42 45"><defs id="SvgjsDefs1019"></defs><path id="SvgjsPath1020" d="M478.055 1873.3L464.971 1850.1699999999998L465.002 1840.81L465.732 1840.81C466.497 1840.81 467.12 1840.1699999999998 467.12 1839.3999999999999C467.12 1838.6299999999999 466.497 1837.9999999999998 465.732 1837.9999999999998L451.86300000000006 1837.9999999999998C451.1000000000001 1837.9999999999998 450.47600000000006 1838.6299999999999 450.47600000000006 1839.3999999999999C450.47600000000006 1840.1699999999998 451.1000000000001 1840.81 451.86300000000006 1840.81L452.9680000000001 1840.81L452.9990000000001 1850.1699999999998L439.5420000000001 1873.3C436.4020000000001 1878.6 438.8260000000001 1882.93 444.9280000000001 1882.93L472.6670000000001 1882.93C478.7700000000001 1882.93 481.1940000000001 1878.6000000000001 478.05500000000006 1873.3C474.91600000000005 1868 478.05500000000006 1873.3 478.05500000000006 1873.3ZM447.085 1865.96L455.99199999999996 1850.94L455.99199999999996 1840.99L462.00899999999996 1840.99L462.00899999999996 1850.94L470.44999999999993 1865.96Z " fill="#000" transform="matrix(1,0,0,1,-438,-1838)"></path></svg>