<svg id="SvgjsSvg1042" xmlns="http://www.w3.org/2000/svg" version="1.1" xmlns:xlink="http://www.w3.org/1999/xlink" xmlns:svgjs="http://svgjs.com/svgjs" width="34" height="30" viewBox="0 0 34 30"><defs id="SvgjsDefs1043"></defs><path id="SvgjsPath1044" d="M1006.43 4832.63C1013.9699999999999 4832.63 1020.0799999999999 4837.57 1020.0799999999999 4843.67C1020.0799999999999 4849.77 1013.9699999999999 4854.72 1006.43 4854.72C1005.6999999999999 4854.72 1004.9899999999999 4854.67 1004.3 4854.59C1001.37 4857.51 997.981 4858.03 994.598 4858.110000000001L994.598 4857.39C996.4259999999999 4856.5 997.8979999999999 4854.88 997.8979999999999 4853.02C997.8979999999999 4852.76 997.8779999999999 4852.51 997.8399999999999 4852.26C994.752 4850.2300000000005 992.7789999999999 4847.14 992.7789999999999 4843.67C992.7789999999999 4837.57 998.8889999999999 4832.63 1006.4299999999998 4832.63C1013.9699999999998 4832.63 1006.4299999999998 4832.63 1006.4299999999998 4832.63ZM1021.1 4857.39C1021.1 4857.17 1021.12 4856.950000000001 1021.15 4856.7300000000005C1023.8299999999999 4855.000000000001 1025.54 4852.35 1025.54 4849.370000000001C1025.54 4846.820000000001 1024.27 4844.490000000001 1022.1999999999999 4842.790000000001C1022.2299999999999 4843.080000000001 1022.2399999999999 4843.380000000001 1022.2399999999999 4843.670000000001C1022.2399999999999 4845.520000000001 1021.7999999999998 4847.300000000001 1020.9199999999998 4848.980000000001C1020.0899999999998 4850.550000000001 1018.9299999999998 4851.960000000001 1017.4399999999998 4853.160000000002C1014.4999999999998 4855.550000000002 1010.6099999999998 4856.870000000002 1006.4999999999998 4856.880000000002C1008.4899999999998 4858.1100000000015 1010.9899999999998 4858.840000000002 1013.7099999999998 4858.840000000002C1014.3399999999998 4858.840000000002 1014.9499999999998 4858.800000000002 1015.5499999999998 4858.730000000002C1018.0999999999998 4861.230000000002 1020.7899999999998 4861.680000000002 1023.7199999999998 4861.750000000003L1023.7199999999998 4861.130000000003C1022.1299999999998 4860.370000000003 1021.0999999999998 4858.980000000003 1021.0999999999998 4857.390000000003C1021.0999999999998 4857.390000000003 1021.0999999999998 4857.610000000003 1021.0999999999998 4857.390000000003Z " fill="#000" transform="matrix(1,0,0,1,-992,-4832)"></path></svg>