<svg id="SvgjsSvg1033" xmlns="http://www.w3.org/2000/svg" version="1.1" xmlns:xlink="http://www.w3.org/1999/xlink" xmlns:svgjs="http://svgjs.com/svgjs" width="46" height="37" viewBox="0 0 46 37"><defs id="SvgjsDefs1034"></defs><path id="SvgjsPath1035" d="M1481.01 1865.04L1475.05 1853.99L1467 1854.02L1467 1848.76C1467 1847.24 1465.41 1845.99 1463.87 1845.99L1438.7299999999998 1845.99C1437.1999999999998 1845.99 1436.0299999999997 1847.3 1436.0299999999997 1848.82L1435.9999999999998 1870.8799999999999L1438.6099999999997 1872.9899999999998L1442.4899999999998 1873.0199999999998C1442.0199999999998 1873.8299999999997 1441.5199999999998 1875.3999999999999 1441.5199999999998 1876.4099999999999C1441.5199999999998 1879.4599999999998 1444.0299999999997 1881.9399999999998 1447.1099999999997 1881.9399999999998C1450.1999999999996 1881.9399999999998 1452.6999999999996 1879.4599999999998 1452.6999999999996 1876.4099999999999C1452.6999999999996 1875.3999999999999 1452.5799999999997 1873.8 1452.1099999999997 1872.9899999999998L1467.5699999999997 1873.0199999999998C1467.0899999999997 1873.8299999999997 1466.6699999999996 1875.3999999999999 1466.6699999999996 1876.4099999999999C1466.6699999999996 1879.4599999999998 1469.1699999999996 1881.9399999999998 1472.2499999999995 1881.9399999999998C1475.3399999999995 1881.9399999999998 1477.8399999999995 1879.4599999999998 1477.8399999999995 1876.4099999999999C1477.8399999999995 1875.3999999999999 1477.4999999999995 1873.83 1477.0299999999995 1873.0199999999998L1481.0099999999995 1872.9899999999998ZM1467.07 1863.99L1467.04 1857.06L1472.05 1857L1475.95 1863.99Z " fill="#ffe600" transform="matrix(1,0,0,1,-1436,-1845)"></path></svg>