<svg id="SvgjsSvg1063" xmlns="http://www.w3.org/2000/svg" version="1.1" xmlns:xlink="http://www.w3.org/1999/xlink" xmlns:svgjs="http://svgjs.com/svgjs" width="17" height="18"><defs id="SvgjsDefs1064"></defs><path id="SvgjsPath1065" d="M936.5 8407.73C931.878 8407.73 928.116 8403.97 928.116 8399.35C928.116 8394.73 931.8779999999999 8390.970000000001 936.5 8390.970000000001C941.124 8390.970000000001 944.884 8394.730000000001 944.884 8399.35C944.884 8403.970000000001 941.124 8407.73 936.5 8407.73C931.876 8407.73 936.5 8407.73 936.5 8407.73ZM937.002 8399.42C937.0949999999999 8399.39 937.189 8399.36 937.284 8399.34C937.103 8398.93 936.909 8398.52 936.704 8398.12C933.127 8399.19 929.6569999999999 8399.150000000001 929.3439999999999 8399.140000000001C929.342 8399.220000000001 929.3399999999999 8399.29 929.3399999999999 8399.36C929.3399999999999 8401.2 930.0369999999999 8402.880000000001 931.1809999999999 8404.150000000001C931.343 8403.87 933.3079999999999 8400.62 937.002 8399.420000000002ZM939.298 8405.95C939.191 8405.320000000002 938.775 8403.130000000001 937.769 8400.52C937.753 8400.53 937.738 8400.53 937.722 8400.54C933.684 8401.95 932.2339999999999 8404.75 932.106 8405.01C933.318 8405.960000000001 934.846 8406.52 936.5 8406.52C937.492 8406.52 938.438 8406.32 939.298 8405.95C940.159 8405.58 939.298 8405.95 939.298 8405.95ZM929.49 8397.89C929.811 8397.9 932.7620000000001 8397.91 936.111 8397.019999999999C934.926 8394.909999999998 933.645 8393.14 933.456 8392.88C931.452 8393.82 929.955 8395.67 929.49 8397.89C929.025 8400.119999999999 929.49 8397.89 929.49 8397.89ZM934.822 8392.4C935.019 8392.66 936.321 8394.44 937.494 8396.59C940.0400000000001 8395.64 941.118 8394.19 941.246 8394C939.983 8392.88 938.3199999999999 8392.2 936.5 8392.2C935.922 8392.2 935.361 8392.27 934.822 8392.400000000001C934.283 8392.53 934.822 8392.400000000001 934.822 8392.400000000001ZM939.112 8400.19C940.048 8402.76 940.429 8404.86 940.501 8405.300000000001C942.108 8404.210000000001 943.2529999999999 8402.490000000002 943.572 8400.500000000002C943.325 8400.420000000002 941.355 8399.830000000002 939.112 8400.190000000002ZM931.181 8404.15C932.326 8405.42 931.181 8404.15 931.181 8404.15ZM938.045 8397.66C938.2099999999999 8398 938.372 8398.34 938.5219999999999 8398.69C938.574 8398.82 938.6249999999999 8398.94 938.674 8399.060000000001C941.058 8398.760000000002 943.424 8399.240000000002 943.66 8399.29C943.646 8397.6 943.043 8396.050000000001 942.0419999999999 8394.830000000002C941.8919999999999 8395.04 940.6919999999999 8396.580000000002 938.045 8397.660000000002Z " fill="#000" transform="matrix(1,0,0,1,-928,-8390)"></path></svg>