<svg id="SvgjsSvg1045" xmlns="http://www.w3.org/2000/svg" version="1.1" xmlns:xlink="http://www.w3.org/1999/xlink" xmlns:svgjs="http://svgjs.com/svgjs" width="29" height="31" viewBox="0 0 29 31"><defs id="SvgjsDefs1046"></defs><path id="SvgjsPath1047" d="M419.556 4854.47C420.478 4854.47 419.556 4859.08 417.712 4859.08C417.712 4860.93 415.905 4862.03 414.062 4862.03C406.29822 4862.03 408.88973 4859.8734699999995 401.12100000000004 4859.0576L401.12100000000004 4859.01L401.04780000000005 4859.01L400.97600000000006 4844.33L401.12100000000004 4844.33L401.12100000000004 4844.28609C408.01359 4842.17732 414.94700000000006 4836.99741 414.94700000000006 4832.349999999999C416.47400000000005 4832.349999999999 420.4050000000001 4833.799999999999 414.87500000000006 4843.009999999999L420.44100000000003 4843.009999999999C423.20700000000005 4843.009999999999 422.322 4848.94 420.478 4848.94C422.581 4848.94 421.40000000000003 4854.469999999999 419.556 4854.469999999999ZM401.121 4859.0576C401.09677 4859.05506 401.07243 4859.05252 401.048 4859.05L401.0478 4859.01L399.025 4859.01L399.025 4844.33L400.976 4844.33C401.02433 4844.31552 401.07266 4844.30088 401.121 4844.28609L401.121 4842.98L397.361 4842.98C396.347 4842.98 394.94 4844.69 394.94 4846.209999999999L394.976 4857.239999999999C394.976 4858.759999999999 396.42 4859.999999999999 397.433 4859.999999999999L401.121 4859.999999999999Z " fill="#000" transform="matrix(1,0,0,1,-394,-4832)"></path></svg>