<svg id="SvgjsSvg1027" xmlns="http://www.w3.org/2000/svg" version="1.1" xmlns:xlink="http://www.w3.org/1999/xlink" xmlns:svgjs="http://svgjs.com/svgjs" width="44" height="46" viewBox="0 0 44 46"><defs id="SvgjsDefs1028"></defs><path id="SvgjsPath1029" d="M1078.14 1863.87C1078.13599 1863.86288 1078.1320300000002 1863.85584 1078.1281000000001 1863.8488699999998C1075.83479 1859.7619699999998 1077.2269400000002 1854.5359099999998 1081.2500000000002 1852.1599999999999L1076.9200000000003 1844.4999999999998C1075.6800000000003 1845.2399999999998 1074.2400000000002 1845.6599999999999 1072.7000000000003 1845.6599999999999C1068.0700000000002 1845.6599999999999 1064.3200000000002 1841.81 1064.3200000000002 1837.05L1055.66 1837.05C1055.67 1838.52 1055.3100000000002 1840.01 1054.5400000000002 1841.37C1052.2300000000002 1845.4599999999998 1047.0900000000001 1846.85 1043.0500000000002 1844.4799999999998L1038.7200000000003 1852.1399999999999C1039.9600000000003 1852.87 1041.0500000000002 1853.9199999999998 1041.8100000000002 1855.28C1044.1200000000001 1859.36 1042.7400000000002 1864.59 1038.7300000000002 1866.98L1043.0600000000002 1874.64C1044.2900000000002 1873.91 1045.7200000000003 1873.49 1047.2500000000002 1873.49C1051.8700000000001 1873.49 1055.6100000000001 1877.32 1055.6300000000003 1882.06L1064.3000000000004 1882.06C1064.2900000000004 1880.6 1064.6500000000003 1879.1299999999999 1065.4200000000003 1877.78C1067.7200000000003 1873.7 1072.8500000000004 1872.31 1076.8800000000003 1874.66L1081.2200000000003 1867C1079.9800000000002 1866.28 1078.9100000000003 1865.22 1078.1400000000003 1863.87ZM1078.1281 1863.84887C1078.13571 1863.86239 1078.1399999999999 1863.8700000000001 1078.1399999999999 1863.8700000000001C1078.13602 1863.8629600000002 1078.13206 1863.8559100000002 1078.1281 1863.84887ZM1059.98 1868.67C1055.06 1868.67 1051.06 1864.5900000000001 1051.06 1859.5500000000002C1051.06 1854.5200000000002 1055.06 1850.4400000000003 1059.98 1850.4400000000003C1064.91 1850.4400000000003 1068.91 1854.5200000000002 1068.91 1859.5500000000002C1068.91 1864.5900000000001 1064.91 1868.67 1059.98 1868.67C1055.05 1868.67 1059.98 1868.67 1059.98 1868.67Z " fill="#000" transform="matrix(1,0,0,1,-1038,-1837)"></path></svg>