<svg id="SvgjsSvg1066" xmlns="http://www.w3.org/2000/svg" version="1.1" xmlns:xlink="http://www.w3.org/1999/xlink" xmlns:svgjs="http://svgjs.com/svgjs" width="21" height="18"><defs id="SvgjsDefs1067"></defs><path id="SvgjsPath1068" d="M1009.02 8390.97L1003.98 8390.97C1001.7 8390.97 999.564 8392.849999999999 999.564 8394.789999999999C999.564 8396.759999999998 1001.11 8398.349999999999 1003.43 8398.349999999999C1003.5899999999999 8398.349999999999 1003.7399999999999 8398.349999999999 1003.9 8398.339999999998C1003.75 8398.619999999999 1003.64 8398.929999999998 1003.64 8399.259999999998C1003.64 8399.809999999998 1003.9399999999999 8400.249999999998 1004.33 8400.609999999999C1004.0400000000001 8400.609999999999 1003.76 8400.619999999999 1003.45 8400.619999999999C1000.6400000000001 8400.619999999999 998 8402.329999999998 998 8404.13C998 8405.9 1000.84 8407.039999999999 1003.66 8407.039999999999C1006.87 8407.039999999999 1008.9499999999999 8405.279999999999 1008.9499999999999 8403.509999999998C1008.9499999999999 8402.079999999998 1008.2099999999999 8401.229999999998 1006.8699999999999 8400.309999999998C1006.4099999999999 8399.999999999998 1005.5299999999999 8399.239999999998 1005.5299999999999 8398.789999999997C1005.5299999999999 8398.259999999997 1005.6899999999998 8397.999999999996 1006.5099999999999 8397.379999999997C1007.3499999999999 8396.749999999998 1007.9399999999998 8395.859999999997 1007.9399999999998 8394.819999999998C1007.9399999999998 8393.579999999998 1007.3699999999998 8392.379999999997 1006.2999999999998 8391.979999999998L1008.9699999999998 8392.009999999998ZM1007.28 8403.26C1007.0699999999999 8403.39 1007.06 8403.69 1007.06 8403.86C1007.06 8405.300000000001 1006 8406.01 1003.68 8406.01C1001.7299999999999 8406.01 1000.02 8405.06 1000.02 8403.630000000001C1000.02 8402.230000000001 1002.04 8401.060000000001 1003.99 8401.080000000002C1004.44 8401.080000000002 1004.86 8401.150000000001 1005.25 8401.280000000002C1006.3 8401.990000000002 1007.06 8402.390000000003 1007.28 8403.200000000003C1007.49 8404.010000000002 1007.28 8403.260000000002 1007.28 8403.260000000002ZM1004.16 8397.85C1002.85 8397.82 1001.61 8396.44 1001.39 8394.78C1001.16 8393.12 1002.04 8391.84 1003.34 8391.880000000001C1004.65 8391.920000000002 1005.89 8393.26 1006.12 8394.920000000002C1006.34 8396.580000000002 1005.47 8397.890000000001 1004.16 8397.850000000002C1002.85 8397.820000000002 1004.16 8397.850000000002 1004.16 8397.850000000002ZM1018.03 8394.93L1018 8395.970000000001L1013.96 8396.000000000002L1013.99 8399.990000000002L1013 8400.020000000002L1013.03 8395.970000000003L1009.05 8396.000000000004L1008.99 8395.020000000004L1013 8394.990000000003L1013 8390.970000000003L1013.99 8390.970000000003L1013.99 8394.930000000002Z " fill="#ffffff" transform="matrix(1,0,0,1,-998,-8390)"></path></svg>