<svg id="SvgjsSvg1057" xmlns="http://www.w3.org/2000/svg" version="1.1" xmlns:xlink="http://www.w3.org/1999/xlink" xmlns:svgjs="http://svgjs.com/svgjs" width="33" height="31" viewBox="0 0 33 31"><defs id="SvgjsDefs1058"></defs><path id="SvgjsPath1059" d="M958.469 7478.53C967.2170000000001 7478.53 974.3100000000001 7484.34 974.3100000000001 7491.509999999999C974.3100000000001 7498.679999999999 967.2170000000001 7504.489999999999 958.469 7504.489999999999C957.628 7504.489999999999 956.8040000000001 7504.439999999999 955.998 7504.329999999999C952.596 7507.769999999999 948.5350000000001 7508.379999999999 944.6070000000001 7508.469999999999L944.6070000000001 7507.629999999999C946.7270000000001 7506.589999999999 948.5670000000001 7504.679999999999 948.5670000000001 7502.499999999999C948.5670000000001 7502.189999999999 948.5430000000001 7501.889999999999 948.5010000000001 7501.599999999999C944.9190000000001 7499.219999999999 942.628 7495.579999999999 942.628 7491.509999999999C942.628 7484.339999999999 949.72 7478.53 958.469 7478.53 " fill="#ffe600" transform="matrix(1,0,0,1,-942,-7478)"></path></svg>