<svg id="SvgjsSvg1060" xmlns="http://www.w3.org/2000/svg" version="1.1" xmlns:xlink="http://www.w3.org/1999/xlink" xmlns:svgjs="http://svgjs.com/svgjs" width="33" height="32" viewBox="0 0 33 32"><defs id="SvgjsDefs1061"></defs><path id="SvgjsPath1062" d="M1365.83 7491.33C1363.72 7493.45 1363.72 7495.5599999999995 1361.61 7495.5599999999995C1359.5 7495.5599999999995 1357.3799999999999 7493.45 1355.27 7491.33C1353.17 7489.22 1351.05 7487.11 1351.05 7485C1351.05 7482.89 1353.1699999999998 7482.89 1355.27 7480.78C1357.3799999999999 7478.67 1351.05 7472.34 1348.94 7472.34C1346.8300000000002 7472.34 1342.6100000000001 7478.67 1342.6100000000001 7478.67C1342.6100000000001 7482.89 1346.95 7491.45 1351.0500000000002 7495.56C1355.16 7499.660000000001 1363.7200000000003 7504 1367.9400000000003 7504C1367.9400000000003 7504 1374.2700000000002 7499.78 1374.2700000000002 7497.67C1374.2700000000002 7495.56 1367.9400000000003 7489.22 1365.8300000000002 7491.33 " fill="#ffe600" transform="matrix(1,0,0,1,-1342,-7472)"></path></svg>