<svg id="SvgjsSvg1021" xmlns="http://www.w3.org/2000/svg" version="1.1" xmlns:xlink="http://www.w3.org/1999/xlink" xmlns:svgjs="http://svgjs.com/svgjs" width="45" height="45" viewBox="0 0 45 45"><defs id="SvgjsDefs1022"></defs><path id="SvgjsPath1023" d="M676.086 1837.99L678.976 1862.54L675.732 1862.92L673.149 1841L645.782 1841L643.1990000000001 1862.92L639.955 1862.54L642.846 1837.99ZM679.95 1865.98C680.707 1865.98 681.1940000000001 1866.69 680.9540000000001 1867.4L676.4140000000001 1880.66C676.1730000000001 1881.38 675.3590000000002 1881.97 674.6020000000001 1881.97L644.3290000000001 1881.97C643.5730000000001 1881.97 642.758 1881.38 642.518 1880.66L638.041 1867.53C637.801 1866.81 638.0690000000001 1865.98 638.825 1865.98L679.8570000000001 1866.04C679.8570000000001 1866.04 679.1940000000001 1865.98 679.95 1865.98ZM648.996 1842.95L669.966 1842.95L670.008 1845.99L648.9960000000001 1846.07ZM648.958 1859.98L670.005 1859.98L670.036 1863.04L648.9889999999999 1863.01ZM649.021 1854.98L670.005 1854.98L670.005 1858.01L648.989 1858.04ZM649.021 1848.99L670.036 1848.99L670.005 1852.02L648.989 1851.98ZM664.97 1867.97L653.9920000000001 1867.97L653.9610000000001 1870.97L665.0010000000001 1870.97Z " fill="#ffe600" transform="matrix(1,0,0,1,-637,-1837)"></path></svg>