<svg id="SvgjsSvg1039" xmlns="http://www.w3.org/2000/svg" version="1.1" xmlns:xlink="http://www.w3.org/1999/xlink" xmlns:svgjs="http://svgjs.com/svgjs" width="33" height="33" viewBox="0 0 33 33"><defs id="SvgjsDefs1040"></defs><path id="SvgjsPath1041" d="M992.776 4686.56C992.776 4695.450000000001 999.9799999999999 4702.660000000001 1008.87 4702.660000000001C1017.76 4702.660000000001 1024.97 4695.450000000001 1024.97 4686.56C1024.97 4677.68 1017.76 4670.47 1008.87 4670.47C999.98 4670.47 992.776 4677.68 992.776 4686.56ZM1002.84 4686.56C1002.84 4683.2300000000005 1005.5400000000001 4680.530000000001 1008.87 4680.530000000001C1012.2 4680.530000000001 1014.91 4683.2300000000005 1014.91 4686.56C1014.91 4689.900000000001 1012.1999999999999 4692.6 1008.87 4692.6C1005.54 4692.6 1002.84 4689.900000000001 1002.84 4686.56C1002.84 4683.2300000000005 1002.84 4686.56 1002.84 4686.56ZM1014.26 4673.55L1011.95 4679.13C1011 4678.7300000000005 1009.96 4678.52 1008.87 4678.52C1007.78 4678.52 1006.74 4678.7300000000005 1005.79 4679.13L1004.7099999999999 4676.51L1003.4799999999999 4673.55C1005.1399999999999 4672.860000000001 1006.9599999999999 4672.4800000000005 1008.8699999999999 4672.4800000000005C1010.7799999999999 4672.4800000000005 1012.5999999999999 4672.860000000001 1014.2599999999999 4673.55C1015.9199999999998 4674.24 1014.2599999999999 4673.55 1014.2599999999999 4673.55ZM1021.89 4691.96L1016.31 4689.65C1016.6999999999999 4688.7 1016.92 4687.66 1016.92 4686.5599999999995C1016.92 4685.469999999999 1016.6999999999999 4684.429999999999 1016.31 4683.48L1020.14 4681.889999999999L1021.88 4681.169999999999C1022.57 4682.829999999999 1022.95 4684.659999999999 1022.95 4686.5599999999995C1022.95 4688.469999999999 1022.57 4690.289999999999 1021.8900000000001 4691.959999999999C1021.2 4693.619999999999 1021.8900000000001 4691.959999999999 1021.8900000000001 4691.959999999999ZM998.819 4682.4L1001.43 4683.48C1001.04 4684.429999999999 1000.8199999999999 4685.469999999999 1000.8199999999999 4686.5599999999995C1000.8199999999999 4687.66 1001.04 4688.7 1001.43 4689.65L995.858 4691.96C995.169 4690.29 994.7879999999999 4688.47 994.7879999999999 4686.56C994.7879999999999 4684.660000000001 995.1689999999999 4682.830000000001 995.8559999999999 4681.17ZM1003.48 4699.58L1004.2 4697.84L1005.7900000000001 4694C1006.7400000000001 4694.4 1007.7800000000001 4694.61 1008.8700000000001 4694.61C1009.9600000000002 4694.61 1011.0000000000001 4694.4 1011.9500000000002 4694L1014.2600000000001 4699.58C1012.6000000000001 4700.2699999999995 1010.7800000000001 4700.65 1008.8700000000001 4700.65C1006.9600000000002 4700.65 1005.1400000000001 4700.2699999999995 1003.4800000000001 4699.58C1001.8200000000002 4698.89 1003.4800000000001 4699.58 1003.4800000000001 4699.58Z " fill="#000" transform="matrix(1,0,0,1,-992,-4670)"></path></svg>