<svg id="SvgjsSvg1036" xmlns="http://www.w3.org/2000/svg" version="1.1" xmlns:xlink="http://www.w3.org/1999/xlink" xmlns:svgjs="http://svgjs.com/svgjs" width="21" height="19" viewBox="0 0 21 19"><defs id="SvgjsDefs1037"></defs><path id="SvgjsPath1038" d="M394.589 4687.94C394.589 4695.849999999999 401.001 4702.259999999999 408.912 4702.259999999999C416.822 4702.259999999999 423.234 4695.849999999999 423.234 4687.94C423.234 4680.03 416.822 4673.61 408.912 4673.61C401.001 4673.61 394.589 4680.03 394.589 4687.94ZM408.912 4699.45C402.556 4699.45 397.402 4694.29 397.402 4687.94C397.402 4681.58 402.556 4676.429999999999 408.912 4676.429999999999C415.268 4676.429999999999 420.421 4681.579999999999 420.421 4687.94C420.421 4694.29 415.268 4699.45 408.912 4699.45C402.556 4699.45 408.912 4699.45 408.912 4699.45ZM405.585 4671.91C404.462 4670.46 402.703 4669.5199999999995 400.727 4669.5199999999995C397.33599999999996 4669.5199999999995 394.589 4672.2699999999995 394.589 4675.66C394.589 4676.7699999999995 394.883 4677.8099999999995 395.394 4678.7C397.744 4675.2699999999995 401.367 4672.78 405.585 4671.91C409.803 4671.04 405.585 4671.91 405.585 4671.91ZM423.234 4675.66C423.234 4672.2699999999995 420.48699999999997 4669.5199999999995 417.096 4669.5199999999995C415.12 4669.5199999999995 413.361 4670.459999999999 412.238 4671.91C416.454 4672.78 420.077 4675.2699999999995 422.427 4678.7C422.94 4677.8099999999995 423.23400000000004 4676.7699999999995 423.23400000000004 4675.66ZM406.866 4689.98L408.912 4689.98L408.86699999999996 4687.94L409.08201999999994 4687.94L409.04699999999997 4679.98L406.866 4679.98ZM409.08202 4687.94L415.05 4687.94L415.05 4689.98L409.091 4689.98Z " fill="#000" transform="matrix(1,0,0,1,-394,-4669)"></path></svg>