<svg id="SvgjsSvg1048" xmlns="http://www.w3.org/2000/svg" version="1.1" xmlns:xlink="http://www.w3.org/1999/xlink" xmlns:svgjs="http://svgjs.com/svgjs" width="18" height="16"><defs id="SvgjsDefs1049"></defs><path id="SvgjsPath1050" d="M661.943 5804.22C661.287 5804.52 660.576 5804.72 659.837 5804.8C660.5939999999999 5804.35 661.173 5803.63 661.449 5802.77C660.741 5803.1900000000005 659.9549999999999 5803.5 659.121 5803.660000000001C658.451 5802.950000000001 657.497 5802.500000000001 656.443 5802.500000000001C654.417 5802.500000000001 652.7769999999999 5804.140000000001 652.7769999999999 5806.170000000001C652.7769999999999 5806.460000000001 652.809 5806.740000000001 652.8689999999999 5807.010000000001C649.8229999999999 5806.8600000000015 647.1209999999999 5805.4000000000015 645.3149999999999 5803.180000000001C644.9949999999999 5803.720000000001 644.814 5804.350000000001 644.814 5805.020000000001C644.814 5806.290000000002 645.463 5807.420000000001 646.448 5808.0700000000015C645.845 5808.050000000001 645.281 5807.890000000001 644.787 5807.620000000002C644.7860000000001 5807.630000000002 644.7860000000001 5807.6500000000015 644.7860000000001 5807.660000000002C644.7860000000001 5809.440000000001 646.0500000000001 5810.920000000002 647.7280000000001 5811.260000000002C647.4200000000001 5811.340000000002 647.0970000000001 5811.380000000002 646.7610000000001 5811.380000000002C646.5260000000001 5811.380000000002 646.2950000000001 5811.3600000000015 646.07 5811.3200000000015C646.538 5812.780000000002 647.893 5813.840000000002 649.4970000000001 5813.870000000002C648.243 5814.850000000001 646.6610000000001 5815.440000000001 644.9440000000001 5815.440000000001C644.6450000000001 5815.440000000001 644.3530000000001 5815.420000000001 644.0670000000001 5815.390000000001C645.6920000000001 5816.420000000001 647.6180000000002 5817.030000000002 649.6870000000001 5817.030000000002C656.4350000000002 5817.030000000002 660.1230000000002 5811.450000000002 660.1230000000002 5806.600000000001C660.1230000000002 5806.440000000001 660.1200000000001 5806.280000000002 660.1120000000002 5806.120000000002C660.8290000000002 5805.6100000000015 661.4510000000002 5804.960000000002 661.9430000000002 5804.220000000002 " fill="#000" transform="matrix(1,0,0,1,-644,-5802)"></path></svg>