<svg id="SvgjsSvg1024" xmlns="http://www.w3.org/2000/svg" version="1.1" xmlns:xlink="http://www.w3.org/1999/xlink" xmlns:svgjs="http://svgjs.com/svgjs" width="45" height="42" viewBox="0 0 45 42"><defs id="SvgjsDefs1025"></defs><path id="SvgjsPath1026" d="M877.356 1873.54L864.371 1860.55C863.5699999999999 1859.75 862.254 1859.75 861.449 1860.55L860.476 1861.53L852.553 1853.61L865.925 1840.03L852.1869999999999 1840.03L845.6639999999999 1846.72L845.0889999999998 1845.95L842.0119999999998 1845.99L842.0429999999998 1848.94L842.7409999999998 1849.64L833.8689999999998 1858.51L840.7579999999998 1865.4L849.6299999999998 1856.5300000000002L857.5529999999998 1864.4500000000003L856.5789999999997 1865.4200000000003C855.7739999999998 1866.2300000000002 855.7739999999998 1867.5400000000002 856.5789999999997 1868.3500000000004L869.5609999999997 1881.3300000000004C870.3649999999997 1882.1300000000003 871.6809999999997 1882.1300000000003 872.4829999999997 1881.3300000000004L877.3529999999997 1876.4600000000005C878.1609999999997 1875.6600000000005 878.1609999999997 1874.3400000000006 877.3559999999998 1873.5400000000004 " fill="#ffe600" transform="matrix(1,0,0,1,-833,-1840)"></path></svg>